<?xml version="1.0" standalone="no"?>
<!DOCTYPE svg PUBLIC "-//W3C//DTD SVG 20010904//EN"
 "https://www.w3.org/TR/2001/REC-SVG-20010904/DTD/svg10.dtd">
<svg version="1.0" xmlns="https://www.w3.org/2000/svg"
 width="1067.000000pt" height="1067.000000pt" viewBox="0 0 1067.000000 1067.000000"
 preserveAspectRatio="xMidYMid meet">

<g transform="translate(0.000000,1067.000000) scale(0.100000,-0.100000)"
fill="#000000" stroke="none">
<path d="M3425 10494 c-548 -26 -964 -98 -1322 -229 -142 -52 -400 -181 -537
-269 -492 -316 -792 -753 -873 -1268 -21 -135 -23 -399 -4 -533 54 -388 171
-659 380 -878 219 -230 480 -341 854 -363 65 -4 117 -8 117 -9 0 -13 -179
-525 -237 -679 -187 -498 -439 -997 -640 -1268 -172 -231 -368 -389 -584 -469
-71 -27 -101 -33 -199 -36 -84 -4 -133 -1 -184 11 -38 9 -73 13 -76 9 -4 -5
-12 -22 -18 -39 -10 -30 -9 -32 26 -43 21 -6 82 -16 137 -23 236 -26 530 66
825 260 460 302 1010 937 1419 1637 86 147 256 478 311 605 18 41 35 78 39 82
3 4 53 16 111 28 184 37 382 99 583 182 l97 40 0 38 0 38 -112 -50 c-62 -28
-156 -66 -208 -85 -104 -38 -386 -113 -424 -113 l-24 0 44 113 c52 130 130
387 473 1552 264 899 339 1125 471 1430 29 66 66 146 82 179 l30 59 71 -7
c330 -31 633 -164 840 -369 400 -397 531 -1195 382 -2328 -49 -375 -160 -735
-340 -1104 -239 -491 -529 -852 -864 -1077 -135 -90 -237 -141 -380 -188 -171
-57 -292 -74 -470 -67 -204 8 -362 47 -559 138 l-84 39 -35 -28 -36 -27 89
-42 c384 -182 911 -247 1324 -163 300 61 622 194 873 359 597 394 1060 1108
1212 1871 71 354 74 767 10 1110 -104 553 -325 988 -684 1349 -323 325 -789
552 -1244 605 -120 14 -524 26 -662 20z m395 -78 c0 -3 -44 -37 -97 -77 -207
-153 -412 -335 -504 -446 -174 -210 -363 -558 -540 -992 -45 -109 -507 -1536
-590 -1818 l-12 -43 -60 0 c-33 0 -106 7 -164 16 -286 42 -507 154 -694 351
-171 179 -278 395 -326 653 -38 209 -15 579 52 828 110 409 378 769 765 1026
354 235 758 388 1215 457 95 15 236 24 525 33 217 7 403 14 413 15 9 0 17 -1
17 -3z"/>
<path d="M9889 5790 c-324 -31 -910 -252 -1274 -480 -468 -293 -780 -642
-1042 -1166 l-85 -171 -112 65 c-148 86 -344 183 -436 217 -286 103 -602 94
-884 -26 -177 -75 -385 -250 -489 -410 -116 -178 -147 -265 -147 -409 l0 -97
-60 -68 c-67 -75 -133 -172 -174 -252 l-26 -53 28 0 c25 0 33 8 60 58 36 67
114 178 169 241 l38 43 50 -31 c138 -88 338 -102 532 -38 129 43 193 108 193
197 0 36 -6 48 -38 80 -49 49 -119 65 -252 56 -153 -9 -286 -56 -404 -140 -27
-19 -54 -32 -59 -29 -14 9 0 130 22 196 121 350 484 629 884 678 195 24 407
-12 657 -112 108 -43 359 -173 413 -213 17 -13 12 -29 -79 -262 -53 -137 -142
-373 -199 -524 -291 -776 -503 -1246 -722 -1602 l-53 -87 -113 54 c-181 87
-364 138 -632 177 -144 21 -595 17 -720 -6 -224 -41 -338 -82 -487 -176 -202
-127 -316 -239 -385 -378 -33 -66 -37 -82 -41 -175 -7 -161 21 -238 128 -351
263 -279 736 -342 1274 -170 432 139 878 398 1183 688 l73 68 57 -48 c128
-106 272 -245 376 -361 109 -121 110 -122 132 -105 l23 17 -52 60 c-83 96
-257 267 -373 366 -59 50 -112 95 -116 99 -5 4 33 56 83 116 104 124 305 421
406 599 159 281 398 842 636 1490 38 105 71 192 73 194 2 2 64 -35 137 -82
287 -183 587 -356 817 -471 62 -32 111 -62 111 -70 0 -8 -9 -74 -20 -148 -11
-73 -25 -216 -32 -318 -40 -626 142 -1017 517 -1115 63 -16 73 -13 77 25 3 22
-2 25 -43 31 -107 16 -165 72 -195 189 -29 116 -11 226 112 648 36 125 79 283
95 352 17 69 32 132 35 141 4 15 9 15 53 -1 90 -35 209 -53 301 -47 174 12
313 82 493 247 66 60 67 63 67 112 l0 50 -47 -53 c-144 -165 -275 -257 -412
-289 -88 -21 -229 -9 -344 30 -77 26 -96 36 -93 49 34 112 148 740 312 1721
133 796 198 1162 210 1182 6 9 -79 8 -187 -2z m-39 -118 c0 -5 -34 -91 -76
-193 -282 -688 -479 -1293 -693 -2128 -39 -150 -73 -276 -76 -279 -8 -8 -292
134 -448 225 -127 73 -585 358 -600 372 -4 4 19 72 52 152 331 805 650 1255
1091 1542 186 120 402 219 617 282 131 38 133 38 133 27z m-3743 -2183 c105
-40 95 -147 -19 -203 -86 -42 -186 -59 -318 -53 -126 5 -204 24 -247 61 l-27
23 45 33 c122 89 301 147 461 149 42 1 89 -4 105 -10z m-397 -1878 c154 -27
287 -60 405 -101 101 -36 245 -106 245 -119 0 -5 -36 -58 -79 -117 -398 -549
-841 -843 -1310 -872 -328 -21 -589 58 -762 228 -96 95 -122 150 -127 275 l-4
100 43 85 c35 70 59 102 143 185 198 197 397 297 676 339 163 24 161 24 410
21 182 -2 263 -8 360 -24z"/>
<path d="M5084 5331 c-23 -10 -53 -34 -67 -53 -26 -34 -28 -34 -137 -46 -68
-7 -129 -19 -158 -32 -50 -22 -122 -85 -122 -107 0 -22 30 -14 39 10 23 59
111 104 227 116 107 11 118 8 121 -31 3 -39 27 -76 59 -90 13 -6 24 -14 24
-17 0 -3 -30 -17 -67 -29 -170 -59 -274 -175 -289 -321 -16 -155 79 -253 245
-254 111 0 188 37 239 117 22 34 27 53 27 115 l1 74 55 49 c94 84 138 111 185
112 28 1 49 -5 63 -18 12 -11 21 -15 21 -9 0 21 -38 43 -74 43 -56 0 -95 -21
-186 -99 l-83 -72 -22 21 c-42 40 -135 18 -135 -32 0 -18 28 -44 37 -34 3 3 1
6 -5 6 -16 0 -15 33 0 48 18 18 53 14 73 -8 17 -19 17 -20 -20 -35 -47 -20
-39 -31 10 -14 44 16 58 2 48 -51 -21 -119 -133 -207 -252 -198 -79 6 -126 32
-158 86 -73 125 2 316 158 403 56 31 134 59 165 59 86 0 92 50 9 75 -64 18
-87 39 -83 73 3 25 3 25 108 24 154 -2 193 17 176 84 -13 52 -149 73 -232 35z
m193 -29 c30 -17 34 -38 11 -59 -17 -15 -37 -18 -128 -18 -60 0 -112 3 -116 8
-10 10 34 56 66 69 64 27 117 26 167 0z"/>
</g>
</svg>
